<?xml version="1.0" standalone="no"?>
<!DOCTYPE svg PUBLIC "-//W3C//DTD SVG 20010904//EN"
 "http://www.w3.org/TR/2001/REC-SVG-20010904/DTD/svg10.dtd">
<svg version="1.0" xmlns="http://www.w3.org/2000/svg"
 width="512.000000pt" height="512.000000pt" viewBox="0 0 512.000000 512.000000"
 preserveAspectRatio="xMidYMid meet">
<metadata>
Created by potrace 1.14, written by Peter Selinger 2001-2017
</metadata>
<g transform="translate(0.000000,512.000000) scale(0.100000,-0.100000)"
fill="#000000" stroke="none">
<path d="M984 5108 c-42 -20 -45 -47 -45 -350 l1 -290 -159 -197 c-87 -109
-164 -209 -171 -222 -10 -18 -13 -109 -13 -371 l0 -348 -183 0 c-179 0 -184
-1 -211 -24 l-28 -24 -3 -204 -3 -204 27 -27 c15 -15 34 -27 43 -28 9 -1 55
-2 103 -3 47 0 89 -3 92 -6 4 -5 12 -58 32 -222 2 -24 9 -72 14 -108 5 -36 11
-83 14 -105 12 -99 45 -356 51 -395 2 -14 6 -46 9 -72 3 -26 8 -62 10 -80 3
-18 7 -53 10 -78 3 -25 10 -79 16 -120 5 -41 12 -95 15 -120 3 -25 10 -74 15
-110 5 -36 12 -87 15 -115 3 -27 8 -63 10 -80 4 -25 42 -321 59 -460 3 -22 8
-58 11 -80 3 -22 14 -112 25 -200 31 -248 36 -265 76 -284 18 -8 306 -11 1036
-11 l1010 0 50 -45 c60 -54 155 -100 237 -115 89 -16 296 -10 373 10 35 10 99
32 143 51 71 29 90 33 175 33 85 0 104 -4 175 -33 135 -56 196 -68 345 -69
214 -2 314 33 431 148 74 73 115 143 141 240 24 90 26 650 2 749 -43 188 -200
341 -395 387 -38 9 -291 11 -324 3 -16 -5 -41 -10 -55 -13 -14 -2 -73 -23
-133 -45 -147 -56 -245 -57 -372 -2 -11 4 -36 15 -55 23 -19 9 -50 19 -67 22
-18 4 -35 11 -37 14 -2 4 0 30 4 57 4 28 11 79 15 115 4 36 8 67 10 70 1 3 6
36 10 73 3 37 8 76 9 85 2 9 7 44 11 77 4 32 8 67 10 76 2 10 6 45 10 78 3 33
8 68 10 79 2 10 6 43 9 73 3 30 8 65 10 79 2 14 7 52 11 85 4 32 8 67 10 76 2
9 8 61 15 115 18 166 4 149 126 150 100 1 107 2 132 27 l26 27 1 191 c1 210
-7 247 -55 260 -14 4 -103 7 -197 8 l-173 1 0 129 c0 71 -4 140 -9 153 -5 13
-101 115 -215 228 l-206 205 0 131 0 132 62 51 c34 28 66 47 70 43 4 -4 55
-103 113 -219 l106 -213 74 37 c41 21 75 41 75 46 0 4 -52 112 -116 239 -129
258 -125 229 -42 291 37 27 37 27 206 27 169 0 169 0 195 26 l27 26 -3 203
c-2 200 -2 204 -26 229 l-24 26 -486 -1 c-369 -1 -501 -4 -550 -15 -352 -75
-609 -379 -614 -727 -1 -50 3 -61 26 -84 24 -25 31 -26 126 -27 l101 0 0 -110
0 -111 -127 -128 -128 -127 -2 -223 c0 -122 -2 -226 -2 -230 -1 -4 -38 -7 -83
-5 l-83 3 -1 352 -1 352 -67 85 c-36 46 -72 90 -78 98 -7 7 -35 42 -63 78 -27
36 -52 67 -55 70 -3 3 -22 26 -43 51 l-37 46 1 285 c0 158 -3 297 -6 310 -4
14 -19 32 -35 41 -24 15 -63 17 -302 16 -166 0 -281 -4 -294 -11z"/>
</g>
</svg>
